<?xml version="1.0" encoding="UTF-8" standalone="no"?>
<!-- Created with Inkscape (http://www.inkscape.org/) -->

<svg
   sodipodi:docname="wave.svg"
   id="svg5"
   version="1.1"
   viewBox="0 0 162.74942 158.75"
   height="158.75mm"
   width="162.74942mm"
   inkscape:version="1.1 (c68e22c387, 2021-05-23)"
   xmlns:inkscape="http://www.inkscape.org/namespaces/inkscape"
   xmlns:sodipodi="http://sodipodi.sourceforge.net/DTD/sodipodi-0.dtd"
   xmlns:xlink="http://www.w3.org/1999/xlink"
   xmlns="http://www.w3.org/2000/svg"
   xmlns:svg="http://www.w3.org/2000/svg">
  <sodipodi:namedview
     id="namedview7"
     pagecolor="#ffffff"
     bordercolor="#999999"
     borderopacity="1"
     inkscape:pageshadow="0"
     inkscape:pageopacity="0"
     inkscape:pagecheckerboard="0"
     inkscape:document-units="mm"
     showgrid="false"
     showborder="true"
     inkscape:zoom="0.5"
     inkscape:cx="249"
     inkscape:cy="322"
     inkscape:window-width="1360"
     inkscape:window-height="705"
     inkscape:window-x="-8"
     inkscape:window-y="-8"
     inkscape:window-maximized="1"
     inkscape:current-layer="layer1"
     inkscape:snap-nodes="false"
     inkscape:snap-others="false"
     inkscape:snap-global="true"
     fit-margin-top="0"
     fit-margin-left="0"
     fit-margin-right="0"
     fit-margin-bottom="0" />
  <defs
     id="defs2">
    <linearGradient
       inkscape:collect="always"
       id="linearGradient23785">
      <stop
         style="stop-color:#72cede;stop-opacity:1;"
         offset="0"
         id="stop23781" />
      <stop
         style="stop-color:#72cede;stop-opacity:0;"
         offset="1"
         id="stop23783" />
    </linearGradient>
    <linearGradient
       inkscape:collect="always"
       id="linearGradient23265">
      <stop
         style="stop-color:#72cede;stop-opacity:1;"
         offset="0"
         id="stop23261" />
      <stop
         style="stop-color:#72cede;stop-opacity:0;"
         offset="1"
         id="stop23263" />
    </linearGradient>
    <linearGradient
       inkscape:collect="always"
       id="linearGradient22816">
      <stop
         style="stop-color:#a5ebf7;stop-opacity:1;"
         offset="0"
         id="stop22812" />
      <stop
         style="stop-color:#a5ebf7;stop-opacity:0;"
         offset="1"
         id="stop22814" />
    </linearGradient>
    <linearGradient
       inkscape:collect="always"
       xlink:href="#linearGradient22816"
       id="linearGradient22810"
       x1="844"
       y1="438"
       x2="844"
       y2="712"
       gradientUnits="userSpaceOnUse" />
    <linearGradient
       inkscape:collect="always"
       xlink:href="#linearGradient23265"
       id="linearGradient23267"
       x1="752"
       y1="442"
       x2="752"
       y2="630.21826"
       gradientUnits="userSpaceOnUse" />
    <linearGradient
       inkscape:collect="always"
       xlink:href="#linearGradient23785"
       id="linearGradient23787"
       x1="175.68333"
       y1="106.3625"
       x2="175.68333"
       y2="129.4559"
       gradientUnits="userSpaceOnUse" />
  </defs>
  <g
     inkscape:label="Camada 1"
     inkscape:groupmode="layer"
     id="layer1"
     transform="translate(-157.1625,-29.104166)">
    <g
       id="path4351" />
    <g
       id="path4640" />
    <path
       id="path7298"
       style="opacity:1;fill:url(#linearGradient22810);fill-opacity:1;stroke:none;stroke-width:9.86842;stroke-linecap:round;stroke-linejoin:round;stroke-miterlimit:4;stroke-dasharray:none;stroke-dashoffset:205.45;stroke-opacity:1;paint-order:stroke fill markers"
       d="m 894,110 a 300,300 0 0 0 -300,300 300,300 0 0 0 300,300 300,300 0 0 0 195.5918,-72.80469 199.99998,199.99998 0 0 1 -96.73828,25.07227 199.99998,199.99998 0 0 1 -200,-200 199.99998,199.99998 0 0 1 200,-200 A 199.99998,199.99998 0 0 1 1191.9355,443.28711 300,300 0 0 0 1194,410 300,300 0 0 0 894,110 Z"
       transform="scale(0.26458333)" />
    <path
       style="color:#000000;fill:url(#linearGradient23787);fill-opacity:1;stroke-linecap:round;stroke-linejoin:round;stroke-dasharray:79.375, 79.375;stroke-dashoffset:66.1458;-inkscape-stroke:none;paint-order:stroke fill markers"
       d="m 174.97186,120.97963 a 3.3072901,3.3072901 0 0 0 2.45957,0.60162 3.3072901,3.3072901 0 0 0 2.7655,-3.77093 c -1.16309,-7.56193 -1.17033,-15.30835 -0.0328,-22.87771 a 3.3076208,3.3076208 0 0 0 0.002,-7.97e-4 c 1.10689,-7.384484 3.30382,-14.610338 6.50029,-21.356134 a 3.3076208,3.3076208 0 0 0 -8.5e-4,-0.0021 c 2.91102,-6.149687 6.6596,-11.907576 11.10654,-17.054502 2.23956,-2.593106 4.65629,-5.035923 7.22641,-7.301458 a 3.3072901,3.3072901 0 0 0 0.29334,-4.668135 3.3072901,3.3072901 0 0 0 -4.66813,-0.293435 c -2.79503,2.463766 -5.42131,5.118861 -7.85658,7.938435 l -0.002,7.99e-4 c -4.84002,5.602119 -8.91022,11.858478 -12.07672,18.547883 l -8.4e-4,-0.0021 c -3.47639,7.336594 -5.86007,15.180502 -7.06339,23.20657 -1.2365,8.228314 -1.22877,16.638714 0.0368,24.867094 a 3.3072901,3.3072901 0 0 0 1.31136,2.16386 z"
       id="path13927" />
    <path
       id="path13903"
       style="color:#000000;fill:url(#linearGradient23267);fill-opacity:1;stroke-width:3.77953;stroke-linecap:round;stroke-linejoin:round;stroke-dasharray:300, 300;stroke-dashoffset:250;-inkscape-stroke:none;paint-order:stroke fill markers"
       d="m 887.38867,172.66211 a 12.499994,12.499994 0 0 0 -5.36914,1.45508 h -0.004 c -15.92254,8.47929 -31.09611,18.34237 -45.31835,29.42773 -24.67862,19.22814 -46.4511,42.14585 -64.36719,67.80274 -6.46551,9.25203 -12.41493,18.86182 -17.83594,28.75976 a 12.499994,12.499994 0 0 0 -0.12305,0.17578 l -0.002,0.002 c -0.32421,0.5943 -0.63282,1.19658 -0.95312,1.79296 -0.29918,0.55574 -0.59288,1.11434 -0.88868,1.67188 -0.55707,1.05257 -1.11718,2.10327 -1.66211,3.16211 -0.88046,1.70658 -1.74304,3.4219 -2.59179,5.14453 -0.16981,0.34549 -0.33538,0.69295 -0.50391,1.03906 -0.79935,1.63768 -1.58305,3.28206 -2.35351,4.9336 -0.12686,0.27253 -0.25284,0.54546 -0.37891,0.81836 -4.03683,8.7191 -7.68072,17.62255 -10.89063,26.68359 -1.7962,5.06362 -3.45137,10.1742 -4.98046,15.32227 -0.0512,0.17157 -0.0995,0.34396 -0.1504,0.51562 -0.43725,1.48152 -0.86619,2.96538 -1.28124,4.45313 -0.23847,0.85088 -0.46796,1.70379 -0.69922,2.55664 -0.18018,0.66775 -0.3614,1.33498 -0.53711,2.0039 -0.3654,1.38362 -0.71995,2.76976 -1.06641,4.15821 -0.006,0.0228 -0.0119,0.0455 -0.0176,0.0684 -5.47886,21.97798 -8.59316,44.54123 -9.21679,67.19531 -0.77742,27.8855 2.20969,55.86223 8.88671,82.95898 6.44323,26.19534 16.32075,51.50713 29.25391,75.15235 a 12.499994,12.499994 0 0 0 16.96875,4.96484 12.499994,12.499994 0 0 0 4.96875,-16.96094 c -11.90241,-21.76085 -20.99544,-45.06371 -26.91406,-69.1289 a 12.501244,12.501244 0 0 0 -0.004,-0.008 c -6.13489,-24.89654 -8.88167,-50.64867 -8.16601,-76.28906 a 12.501244,12.501244 0 0 0 -0.002,-0.006 c 0.13956,-5.06995 0.42128,-10.13675 0.83008,-15.19336 a 12.499994,12.499994 0 0 0 0.16992,-0.86523 c 1.26159,-15.43527 3.77007,-30.77064 7.49219,-45.79883 0.007,-0.0299 0.0141,-0.0599 0.0215,-0.0898 0.30459,-1.22806 0.62061,-2.45195 0.94141,-3.67579 0.17458,-0.6621 0.35198,-1.32353 0.53125,-1.98437 0.21711,-0.80468 0.43603,-1.6094 0.66016,-2.41211 0.37366,-1.33168 0.75374,-2.66217 1.14648,-3.98828 0.0472,-0.16004 0.0931,-0.32051 0.14063,-0.48047 1.01876,-3.41807 2.10116,-6.81601 3.24609,-10.19336 3.3233,-9.8092 7.17535,-19.44207 11.5332,-28.83789 0.0124,-0.0267 0.0247,-0.0534 0.0371,-0.0801 0.86072,-1.85428 1.74073,-3.69982 2.64063,-5.53515 0.009,-0.0194 0.0179,-0.0392 0.0273,-0.0586 0.82887,-1.68952 1.67925,-3.36832 2.54102,-5.04101 0.41262,-0.79872 0.83574,-1.59192 1.25586,-2.38672 0.36995,-0.7018 0.74144,-1.40291 1.11718,-2.10157 5.22465,-9.68868 11.00432,-19.07889 17.3086,-28.0996 a 12.501244,12.501244 0 0 0 0.002,-0.008 c 16.4733,-23.59084 36.53016,-44.70433 59.23242,-62.39258 13.08968,-10.2026 27.06653,-19.28048 41.70899,-27.07812 a 12.499994,12.499994 0 0 0 5.15234,-16.9082 12.499994,12.499994 0 0 0 -11.53711,-6.61719 z"
       transform="scale(0.26458333)" />
    <path
       id="path7541"
       style="opacity:1;fill:#93e8f7;fill-opacity:1;stroke:none;stroke-width:25.7636;stroke-linecap:round;stroke-linejoin:round;stroke-miterlimit:4;stroke-dasharray:none;stroke-dashoffset:205.45;stroke-opacity:1;paint-order:stroke fill markers"
       d="M 894,110 A 300,300 0 0 0 606.36914,325.26172 214,214 0 0 1 774,244 214,214 0 0 1 986.59375,433.62695 c 75.36245,-21.76388 150.15625,-24.03154 205.11915,8.35352 A 300,300 0 0 0 1194,410 300,300 0 0 0 894,110 Z"
       transform="scale(0.26458333)" />
    <path
       style="opacity:1;fill:#72cede;fill-opacity:1;stroke:none;stroke-width:25.7636;stroke-linecap:round;stroke-linejoin:round;stroke-miterlimit:4;stroke-dasharray:none;stroke-dashoffset:205.45;stroke-opacity:1;paint-order:stroke fill markers"
       d="M 922.45117,111.39258 A 300,300 0 0 1 946.5293,117.04883 300,300 0 0 1 1163.4844,429 c 9.8592,3.49133 19.3276,7.73594 28.2285,12.98047 A 300,300 0 0 0 1194,410 300,300 0 0 0 922.45117,111.39258 Z"
       id="path8544"
       transform="scale(0.26458333)" />
    <circle
       style="opacity:1;fill:#d5f1f5;fill-opacity:1;stroke:none;stroke-width:0.671008;stroke-linecap:round;stroke-linejoin:round;stroke-miterlimit:4;stroke-dasharray:none;stroke-dashoffset:205.45;stroke-opacity:1;paint-order:stroke fill markers"
       id="path9437"
       cx="263.28989"
       cy="152.5522"
       r="3.416218" />
    <circle
       style="opacity:1;fill:#d0f3f7;fill-opacity:1;stroke:none;stroke-width:2.64583;stroke-linecap:round;stroke-linejoin:round;stroke-miterlimit:4;stroke-dasharray:none;stroke-dashoffset:205.45;stroke-opacity:1;paint-order:stroke fill markers"
       id="circle9707"
       cx="272.3103"
       cy="118.05294"
       r="13.470385" />
    <circle
       style="opacity:1;fill:#d0f3f7;fill-opacity:1;stroke:none;stroke-width:2.64583;stroke-linecap:round;stroke-linejoin:round;stroke-miterlimit:4;stroke-dasharray:none;stroke-dashoffset:205.45;stroke-opacity:1;paint-order:stroke fill markers"
       id="circle9799"
       cx="306.44153"
       cy="118.31752"
       r="13.470385" />
    <circle
       style="opacity:1;fill:#d0f3f7;fill-opacity:1;stroke:none;stroke-width:2.64583;stroke-linecap:round;stroke-linejoin:round;stroke-miterlimit:4;stroke-dasharray:none;stroke-dashoffset:205.45;stroke-opacity:1;paint-order:stroke fill markers"
       id="circle9801"
       cx="289.50821"
       cy="108.75491"
       r="13.470385" />
    <circle
       style="opacity:1;fill:#d0f3f7;fill-opacity:1;stroke:none;stroke-width:2.93981;stroke-linecap:round;stroke-linejoin:round;stroke-miterlimit:4;stroke-dasharray:none;stroke-dashoffset:205.45;stroke-opacity:1;paint-order:stroke fill markers"
       id="circle9803"
       cx="289.61325"
       cy="127.96864"
       r="14.967093" />
    <circle
       style="opacity:1;fill:#c8f0f7;fill-opacity:1;stroke:none;stroke-width:0.671008;stroke-linecap:round;stroke-linejoin:round;stroke-miterlimit:4;stroke-dasharray:none;stroke-dashoffset:205.45;stroke-opacity:1;paint-order:stroke fill markers"
       id="circle9885"
       cx="263.28989"
       cy="152.5522"
       r="3.416218" />
    <circle
       style="opacity:1;fill:#c8f0f7;fill-opacity:1;stroke:none;stroke-width:1.26865;stroke-linecap:round;stroke-linejoin:round;stroke-miterlimit:4;stroke-dasharray:none;stroke-dashoffset:205.45;stroke-opacity:1;paint-order:stroke fill markers"
       id="circle9887"
       cx="299.1409"
       cy="179.40741"
       r="6.4589262" />
    <circle
       style="opacity:1;fill:#c8f0f7;fill-opacity:1;stroke:none;stroke-width:0.852898;stroke-linecap:round;stroke-linejoin:round;stroke-miterlimit:4;stroke-dasharray:none;stroke-dashoffset:205.45;stroke-opacity:1;paint-order:stroke fill markers"
       id="circle9889"
       cx="309.19507"
       cy="153.21367"
       r="4.3422594" />
  </g>
</svg>
